G04 Layer: BottomPasteMaskLayer*
G04 EasyEDA v6.4.14, 2021-01-27T18:33:08+00:00*
G04 23e06626385a4a67b6d4a1ad3893387d,b188a025bfda474f93bca2756d95531f,10*
G04 Gerber Generator version 0.2*
G04 Scale: 100 percent, Rotated: No, Reflected: No *
G04 Dimensions in millimeters *
G04 leading zeros omitted , absolute positions ,4 integer and 5 decimal *
%FSLAX45Y45*%
%MOMM*%

%ADD10C,0.0001*%

%LPD*%
G36*
X3484288Y9617598D02*
G01*
X3724287Y9617598D01*
X3724287Y9377598D01*
X3484288Y9377598D01*
G37*
G36*
X2164308Y9363610D02*
G01*
X2404308Y9363610D01*
X2404308Y9123611D01*
X2164308Y9123611D01*
G37*
G36*
X3484288Y7617599D02*
G01*
X3724287Y7617599D01*
X3724287Y7377600D01*
X3484288Y7377600D01*
G37*
G36*
X2164308Y7363612D02*
G01*
X2404308Y7363612D01*
X2404308Y7123612D01*
X2164308Y7123612D01*
G37*
G36*
X3484288Y5617598D02*
G01*
X3724287Y5617598D01*
X3724287Y5377599D01*
X3484288Y5377599D01*
G37*
G36*
X2164308Y5363611D02*
G01*
X2404308Y5363611D01*
X2404308Y5123611D01*
X2164308Y5123611D01*
G37*
G36*
X3484288Y3617600D02*
G01*
X3724287Y3617600D01*
X3724287Y3377600D01*
X3484288Y3377600D01*
G37*
G36*
X2164308Y3363612D02*
G01*
X2404308Y3363612D01*
X2404308Y3123613D01*
X2164308Y3123613D01*
G37*
G36*
X5484289Y9617598D02*
G01*
X5724288Y9617598D01*
X5724288Y9377598D01*
X5484289Y9377598D01*
G37*
G36*
X4164309Y9363610D02*
G01*
X4404309Y9363610D01*
X4404309Y9123611D01*
X4164309Y9123611D01*
G37*
G36*
X5484289Y7617599D02*
G01*
X5724288Y7617599D01*
X5724288Y7377600D01*
X5484289Y7377600D01*
G37*
G36*
X4164309Y7363612D02*
G01*
X4404309Y7363612D01*
X4404309Y7123612D01*
X4164309Y7123612D01*
G37*
G36*
X5484289Y5617598D02*
G01*
X5724288Y5617598D01*
X5724288Y5377599D01*
X5484289Y5377599D01*
G37*
G36*
X4164309Y5363611D02*
G01*
X4404309Y5363611D01*
X4404309Y5123611D01*
X4164309Y5123611D01*
G37*
G36*
X5484289Y3617600D02*
G01*
X5724288Y3617600D01*
X5724288Y3377600D01*
X5484289Y3377600D01*
G37*
G36*
X4164309Y3363612D02*
G01*
X4404309Y3363612D01*
X4404309Y3123613D01*
X4164309Y3123613D01*
G37*
G36*
X7484287Y9617598D02*
G01*
X7724287Y9617598D01*
X7724287Y9377598D01*
X7484287Y9377598D01*
G37*
G36*
X6164308Y9363610D02*
G01*
X6404307Y9363610D01*
X6404307Y9123611D01*
X6164308Y9123611D01*
G37*
G36*
X7484287Y7617599D02*
G01*
X7724287Y7617599D01*
X7724287Y7377600D01*
X7484287Y7377600D01*
G37*
G36*
X6164308Y7363612D02*
G01*
X6404307Y7363612D01*
X6404307Y7123612D01*
X6164308Y7123612D01*
G37*
G36*
X7484287Y5617598D02*
G01*
X7724287Y5617598D01*
X7724287Y5377599D01*
X7484287Y5377599D01*
G37*
G36*
X6164308Y5363611D02*
G01*
X6404307Y5363611D01*
X6404307Y5123611D01*
X6164308Y5123611D01*
G37*
G36*
X7484287Y3617600D02*
G01*
X7724287Y3617600D01*
X7724287Y3377600D01*
X7484287Y3377600D01*
G37*
G36*
X6164308Y3363612D02*
G01*
X6404307Y3363612D01*
X6404307Y3123613D01*
X6164308Y3123613D01*
G37*
G36*
X9484288Y9617598D02*
G01*
X9724288Y9617598D01*
X9724288Y9377598D01*
X9484288Y9377598D01*
G37*
G36*
X8164309Y9363610D02*
G01*
X8404308Y9363610D01*
X8404308Y9123611D01*
X8164309Y9123611D01*
G37*
G36*
X9484288Y7617599D02*
G01*
X9724288Y7617599D01*
X9724288Y7377600D01*
X9484288Y7377600D01*
G37*
G36*
X8164309Y7363612D02*
G01*
X8404308Y7363612D01*
X8404308Y7123612D01*
X8164309Y7123612D01*
G37*
G36*
X9484288Y5617598D02*
G01*
X9724288Y5617598D01*
X9724288Y5377599D01*
X9484288Y5377599D01*
G37*
G36*
X8164309Y5363611D02*
G01*
X8404308Y5363611D01*
X8404308Y5123611D01*
X8164309Y5123611D01*
G37*
G36*
X9484288Y3617600D02*
G01*
X9724288Y3617600D01*
X9724288Y3377600D01*
X9484288Y3377600D01*
G37*
G36*
X8164309Y3363612D02*
G01*
X8404308Y3363612D01*
X8404308Y3123613D01*
X8164309Y3123613D01*
G37*
G36*
X1508688Y8608700D02*
G01*
X1748688Y8608700D01*
X1748688Y8368700D01*
X1508688Y8368700D01*
G37*
G36*
X188709Y8354712D02*
G01*
X428708Y8354712D01*
X428708Y8114713D01*
X188709Y8114713D01*
G37*
G36*
X1521388Y6564000D02*
G01*
X1761388Y6564000D01*
X1761388Y6324000D01*
X1521388Y6324000D01*
G37*
G36*
X201409Y6310012D02*
G01*
X441408Y6310012D01*
X441408Y6070013D01*
X201409Y6070013D01*
G37*
G36*
X1521388Y4595500D02*
G01*
X1761388Y4595500D01*
X1761388Y4355500D01*
X1521388Y4355500D01*
G37*
G36*
X201409Y4341512D02*
G01*
X441408Y4341512D01*
X441408Y4101513D01*
X201409Y4101513D01*
G37*
M02*
