G04 Layer: TopSilkLayer*
G04 EasyEDA v6.4.14, 2021-01-27T18:33:08+00:00*
G04 23e06626385a4a67b6d4a1ad3893387d,b188a025bfda474f93bca2756d95531f,10*
G04 Gerber Generator version 0.2*
G04 Scale: 100 percent, Rotated: No, Reflected: No *
G04 Dimensions in millimeters *
G04 leading zeros omitted , absolute positions ,4 integer and 5 decimal *
%FSLAX45Y45*%
%MOMM*%

%ADD10C,0.2540*%
%ADD19C,0.1524*%

%LPD*%
D19*
X4635500Y1834916D02*
G01*
X4635500Y1725950D01*
X4635500Y1834916D02*
G01*
X4682236Y1834916D01*
X4697729Y1829836D01*
X4703063Y1824502D01*
X4708143Y1814088D01*
X4708143Y1803674D01*
X4703063Y1793260D01*
X4697729Y1788180D01*
X4682236Y1783100D01*
X4635500Y1783100D01*
X4671822Y1783100D02*
G01*
X4708143Y1725950D01*
X4742434Y1814088D02*
G01*
X4752847Y1819422D01*
X4768595Y1834916D01*
X4768595Y1725950D01*
X4635500Y1441216D02*
G01*
X4635500Y1332250D01*
X4635500Y1441216D02*
G01*
X4682236Y1441216D01*
X4697729Y1436136D01*
X4703063Y1430802D01*
X4708143Y1420388D01*
X4708143Y1409974D01*
X4703063Y1399560D01*
X4697729Y1394480D01*
X4682236Y1389400D01*
X4635500Y1389400D01*
X4671822Y1389400D02*
G01*
X4708143Y1332250D01*
X4747768Y1415308D02*
G01*
X4747768Y1420388D01*
X4752847Y1430802D01*
X4758181Y1436136D01*
X4768595Y1441216D01*
X4789170Y1441216D01*
X4799584Y1436136D01*
X4804918Y1430802D01*
X4809997Y1420388D01*
X4809997Y1409974D01*
X4804918Y1399560D01*
X4794504Y1384066D01*
X4742434Y1332250D01*
X4815331Y1332250D01*
X4635500Y1009416D02*
G01*
X4635500Y900450D01*
X4635500Y1009416D02*
G01*
X4682236Y1009416D01*
X4697729Y1004336D01*
X4703063Y999002D01*
X4708143Y988588D01*
X4708143Y978174D01*
X4703063Y967760D01*
X4697729Y962680D01*
X4682236Y957600D01*
X4635500Y957600D01*
X4671822Y957600D02*
G01*
X4708143Y900450D01*
X4752847Y1009416D02*
G01*
X4809997Y1009416D01*
X4779009Y967760D01*
X4794504Y967760D01*
X4804918Y962680D01*
X4809997Y957600D01*
X4815331Y941852D01*
X4815331Y931438D01*
X4809997Y915944D01*
X4799584Y905530D01*
X4784090Y900450D01*
X4768595Y900450D01*
X4752847Y905530D01*
X4747768Y910610D01*
X4742434Y921024D01*
X3365500Y984016D02*
G01*
X3365500Y875050D01*
X3365500Y984016D02*
G01*
X3412236Y984016D01*
X3427729Y978936D01*
X3433063Y973602D01*
X3438143Y963188D01*
X3438143Y952774D01*
X3433063Y942360D01*
X3427729Y937280D01*
X3412236Y932200D01*
X3365500Y932200D01*
X3401822Y932200D02*
G01*
X3438143Y875050D01*
X3524504Y984016D02*
G01*
X3472434Y911372D01*
X3550411Y911372D01*
X3524504Y984016D02*
G01*
X3524504Y875050D01*
X3352800Y1479316D02*
G01*
X3352800Y1370350D01*
X3352800Y1479316D02*
G01*
X3399536Y1479316D01*
X3415029Y1474236D01*
X3420363Y1468902D01*
X3425443Y1458488D01*
X3425443Y1448074D01*
X3420363Y1437660D01*
X3415029Y1432580D01*
X3399536Y1427500D01*
X3352800Y1427500D01*
X3389122Y1427500D02*
G01*
X3425443Y1370350D01*
X3522218Y1479316D02*
G01*
X3470147Y1479316D01*
X3465068Y1432580D01*
X3470147Y1437660D01*
X3485895Y1442994D01*
X3501390Y1442994D01*
X3516884Y1437660D01*
X3527297Y1427500D01*
X3532631Y1411752D01*
X3532631Y1401338D01*
X3527297Y1385844D01*
X3516884Y1375430D01*
X3501390Y1370350D01*
X3485895Y1370350D01*
X3470147Y1375430D01*
X3465068Y1380510D01*
X3459734Y1390924D01*
X3314700Y1834916D02*
G01*
X3314700Y1725950D01*
X3314700Y1834916D02*
G01*
X3361436Y1834916D01*
X3376929Y1829836D01*
X3382263Y1824502D01*
X3387343Y1814088D01*
X3387343Y1803674D01*
X3382263Y1793260D01*
X3376929Y1788180D01*
X3361436Y1783100D01*
X3314700Y1783100D01*
X3351022Y1783100D02*
G01*
X3387343Y1725950D01*
X3484118Y1819422D02*
G01*
X3478784Y1829836D01*
X3463290Y1834916D01*
X3452875Y1834916D01*
X3437381Y1829836D01*
X3426968Y1814088D01*
X3421634Y1788180D01*
X3421634Y1762272D01*
X3426968Y1741444D01*
X3437381Y1731030D01*
X3452875Y1725950D01*
X3458209Y1725950D01*
X3473704Y1731030D01*
X3484118Y1741444D01*
X3489197Y1756938D01*
X3489197Y1762272D01*
X3484118Y1777766D01*
X3473704Y1788180D01*
X3458209Y1793260D01*
X3452875Y1793260D01*
X3437381Y1788180D01*
X3426968Y1777766D01*
X3421634Y1762272D01*
X3026143Y9902220D02*
G01*
X3015729Y9912634D01*
X3000235Y9917714D01*
X2979407Y9917714D01*
X2963913Y9912634D01*
X2953499Y9902220D01*
X2953499Y9891806D01*
X2958579Y9881392D01*
X2963913Y9876058D01*
X2974327Y9870978D01*
X3005569Y9860564D01*
X3015729Y9855484D01*
X3021063Y9850150D01*
X3026143Y9839736D01*
X3026143Y9824242D01*
X3015729Y9813828D01*
X3000235Y9808748D01*
X2979407Y9808748D01*
X2963913Y9813828D01*
X2953499Y9824242D01*
X3060433Y9917714D02*
G01*
X3086595Y9808748D01*
X3112503Y9917714D02*
G01*
X3086595Y9808748D01*
X3112503Y9917714D02*
G01*
X3138411Y9808748D01*
X3164319Y9917714D02*
G01*
X3138411Y9808748D01*
X3198609Y9896886D02*
G01*
X3209023Y9902220D01*
X3224771Y9917714D01*
X3224771Y9808748D01*
X3026143Y7902221D02*
G01*
X3015729Y7912635D01*
X3000235Y7917715D01*
X2979407Y7917715D01*
X2963913Y7912635D01*
X2953499Y7902221D01*
X2953499Y7891807D01*
X2958579Y7881393D01*
X2963913Y7876059D01*
X2974327Y7870979D01*
X3005569Y7860565D01*
X3015729Y7855485D01*
X3021063Y7850151D01*
X3026143Y7839737D01*
X3026143Y7824243D01*
X3015729Y7813829D01*
X3000235Y7808749D01*
X2979407Y7808749D01*
X2963913Y7813829D01*
X2953499Y7824243D01*
X3060433Y7917715D02*
G01*
X3086595Y7808749D01*
X3112503Y7917715D02*
G01*
X3086595Y7808749D01*
X3112503Y7917715D02*
G01*
X3138411Y7808749D01*
X3164319Y7917715D02*
G01*
X3138411Y7808749D01*
X3203943Y7891807D02*
G01*
X3203943Y7896887D01*
X3209023Y7907301D01*
X3214357Y7912635D01*
X3224771Y7917715D01*
X3245599Y7917715D01*
X3255759Y7912635D01*
X3261093Y7907301D01*
X3266173Y7896887D01*
X3266173Y7886473D01*
X3261093Y7876059D01*
X3250679Y7860565D01*
X3198609Y7808749D01*
X3271507Y7808749D01*
X3026143Y5902220D02*
G01*
X3015729Y5912634D01*
X3000235Y5917714D01*
X2979407Y5917714D01*
X2963913Y5912634D01*
X2953499Y5902220D01*
X2953499Y5891806D01*
X2958579Y5881392D01*
X2963913Y5876058D01*
X2974327Y5870978D01*
X3005569Y5860564D01*
X3015729Y5855484D01*
X3021063Y5850150D01*
X3026143Y5839736D01*
X3026143Y5824242D01*
X3015729Y5813828D01*
X3000235Y5808748D01*
X2979407Y5808748D01*
X2963913Y5813828D01*
X2953499Y5824242D01*
X3060433Y5917714D02*
G01*
X3086595Y5808748D01*
X3112503Y5917714D02*
G01*
X3086595Y5808748D01*
X3112503Y5917714D02*
G01*
X3138411Y5808748D01*
X3164319Y5917714D02*
G01*
X3138411Y5808748D01*
X3209023Y5917714D02*
G01*
X3266173Y5917714D01*
X3235185Y5876058D01*
X3250679Y5876058D01*
X3261093Y5870978D01*
X3266173Y5865898D01*
X3271507Y5850150D01*
X3271507Y5839736D01*
X3266173Y5824242D01*
X3255759Y5813828D01*
X3240265Y5808748D01*
X3224771Y5808748D01*
X3209023Y5813828D01*
X3203943Y5818908D01*
X3198609Y5829322D01*
X3026143Y3902222D02*
G01*
X3015729Y3912636D01*
X3000235Y3917716D01*
X2979407Y3917716D01*
X2963913Y3912636D01*
X2953499Y3902222D01*
X2953499Y3891808D01*
X2958579Y3881394D01*
X2963913Y3876060D01*
X2974327Y3870980D01*
X3005569Y3860566D01*
X3015729Y3855486D01*
X3021063Y3850152D01*
X3026143Y3839738D01*
X3026143Y3824244D01*
X3015729Y3813830D01*
X3000235Y3808750D01*
X2979407Y3808750D01*
X2963913Y3813830D01*
X2953499Y3824244D01*
X3060433Y3917716D02*
G01*
X3086595Y3808750D01*
X3112503Y3917716D02*
G01*
X3086595Y3808750D01*
X3112503Y3917716D02*
G01*
X3138411Y3808750D01*
X3164319Y3917716D02*
G01*
X3138411Y3808750D01*
X3250679Y3917716D02*
G01*
X3198609Y3845072D01*
X3276587Y3845072D01*
X3250679Y3917716D02*
G01*
X3250679Y3808750D01*
X5026144Y9902220D02*
G01*
X5015730Y9912634D01*
X5000236Y9917714D01*
X4979408Y9917714D01*
X4963914Y9912634D01*
X4953500Y9902220D01*
X4953500Y9891806D01*
X4958580Y9881392D01*
X4963914Y9876058D01*
X4974328Y9870978D01*
X5005570Y9860564D01*
X5015730Y9855484D01*
X5021064Y9850150D01*
X5026144Y9839736D01*
X5026144Y9824242D01*
X5015730Y9813828D01*
X5000236Y9808748D01*
X4979408Y9808748D01*
X4963914Y9813828D01*
X4953500Y9824242D01*
X5060434Y9917714D02*
G01*
X5086596Y9808748D01*
X5112504Y9917714D02*
G01*
X5086596Y9808748D01*
X5112504Y9917714D02*
G01*
X5138412Y9808748D01*
X5164320Y9917714D02*
G01*
X5138412Y9808748D01*
X5261094Y9917714D02*
G01*
X5209024Y9917714D01*
X5203944Y9870978D01*
X5209024Y9876058D01*
X5224772Y9881392D01*
X5240266Y9881392D01*
X5255760Y9876058D01*
X5266174Y9865898D01*
X5271508Y9850150D01*
X5271508Y9839736D01*
X5266174Y9824242D01*
X5255760Y9813828D01*
X5240266Y9808748D01*
X5224772Y9808748D01*
X5209024Y9813828D01*
X5203944Y9818908D01*
X5198610Y9829322D01*
X5026144Y7902221D02*
G01*
X5015730Y7912635D01*
X5000236Y7917715D01*
X4979408Y7917715D01*
X4963914Y7912635D01*
X4953500Y7902221D01*
X4953500Y7891807D01*
X4958580Y7881393D01*
X4963914Y7876059D01*
X4974328Y7870979D01*
X5005570Y7860565D01*
X5015730Y7855485D01*
X5021064Y7850151D01*
X5026144Y7839737D01*
X5026144Y7824243D01*
X5015730Y7813829D01*
X5000236Y7808749D01*
X4979408Y7808749D01*
X4963914Y7813829D01*
X4953500Y7824243D01*
X5060434Y7917715D02*
G01*
X5086596Y7808749D01*
X5112504Y7917715D02*
G01*
X5086596Y7808749D01*
X5112504Y7917715D02*
G01*
X5138412Y7808749D01*
X5164320Y7917715D02*
G01*
X5138412Y7808749D01*
X5261094Y7902221D02*
G01*
X5255760Y7912635D01*
X5240266Y7917715D01*
X5229852Y7917715D01*
X5214358Y7912635D01*
X5203944Y7896887D01*
X5198610Y7870979D01*
X5198610Y7845071D01*
X5203944Y7824243D01*
X5214358Y7813829D01*
X5229852Y7808749D01*
X5235186Y7808749D01*
X5250680Y7813829D01*
X5261094Y7824243D01*
X5266174Y7839737D01*
X5266174Y7845071D01*
X5261094Y7860565D01*
X5250680Y7870979D01*
X5235186Y7876059D01*
X5229852Y7876059D01*
X5214358Y7870979D01*
X5203944Y7860565D01*
X5198610Y7845071D01*
X5026144Y5902220D02*
G01*
X5015730Y5912634D01*
X5000236Y5917714D01*
X4979408Y5917714D01*
X4963914Y5912634D01*
X4953500Y5902220D01*
X4953500Y5891806D01*
X4958580Y5881392D01*
X4963914Y5876058D01*
X4974328Y5870978D01*
X5005570Y5860564D01*
X5015730Y5855484D01*
X5021064Y5850150D01*
X5026144Y5839736D01*
X5026144Y5824242D01*
X5015730Y5813828D01*
X5000236Y5808748D01*
X4979408Y5808748D01*
X4963914Y5813828D01*
X4953500Y5824242D01*
X5060434Y5917714D02*
G01*
X5086596Y5808748D01*
X5112504Y5917714D02*
G01*
X5086596Y5808748D01*
X5112504Y5917714D02*
G01*
X5138412Y5808748D01*
X5164320Y5917714D02*
G01*
X5138412Y5808748D01*
X5271508Y5917714D02*
G01*
X5219438Y5808748D01*
X5198610Y5917714D02*
G01*
X5271508Y5917714D01*
X5026144Y3902222D02*
G01*
X5015730Y3912636D01*
X5000236Y3917716D01*
X4979408Y3917716D01*
X4963914Y3912636D01*
X4953500Y3902222D01*
X4953500Y3891808D01*
X4958580Y3881394D01*
X4963914Y3876060D01*
X4974328Y3870980D01*
X5005570Y3860566D01*
X5015730Y3855486D01*
X5021064Y3850152D01*
X5026144Y3839738D01*
X5026144Y3824244D01*
X5015730Y3813830D01*
X5000236Y3808750D01*
X4979408Y3808750D01*
X4963914Y3813830D01*
X4953500Y3824244D01*
X5060434Y3917716D02*
G01*
X5086596Y3808750D01*
X5112504Y3917716D02*
G01*
X5086596Y3808750D01*
X5112504Y3917716D02*
G01*
X5138412Y3808750D01*
X5164320Y3917716D02*
G01*
X5138412Y3808750D01*
X5224772Y3917716D02*
G01*
X5209024Y3912636D01*
X5203944Y3902222D01*
X5203944Y3891808D01*
X5209024Y3881394D01*
X5219438Y3876060D01*
X5240266Y3870980D01*
X5255760Y3865900D01*
X5266174Y3855486D01*
X5271508Y3845072D01*
X5271508Y3829324D01*
X5266174Y3818910D01*
X5261094Y3813830D01*
X5245600Y3808750D01*
X5224772Y3808750D01*
X5209024Y3813830D01*
X5203944Y3818910D01*
X5198610Y3829324D01*
X5198610Y3845072D01*
X5203944Y3855486D01*
X5214358Y3865900D01*
X5229852Y3870980D01*
X5250680Y3876060D01*
X5261094Y3881394D01*
X5266174Y3891808D01*
X5266174Y3902222D01*
X5261094Y3912636D01*
X5245600Y3917716D01*
X5224772Y3917716D01*
X7026142Y9902220D02*
G01*
X7015728Y9912634D01*
X7000234Y9917714D01*
X6979406Y9917714D01*
X6963912Y9912634D01*
X6953498Y9902220D01*
X6953498Y9891806D01*
X6958578Y9881392D01*
X6963912Y9876058D01*
X6974326Y9870978D01*
X7005568Y9860564D01*
X7015728Y9855484D01*
X7021062Y9850150D01*
X7026142Y9839736D01*
X7026142Y9824242D01*
X7015728Y9813828D01*
X7000234Y9808748D01*
X6979406Y9808748D01*
X6963912Y9813828D01*
X6953498Y9824242D01*
X7060432Y9917714D02*
G01*
X7086594Y9808748D01*
X7112502Y9917714D02*
G01*
X7086594Y9808748D01*
X7112502Y9917714D02*
G01*
X7138410Y9808748D01*
X7164318Y9917714D02*
G01*
X7138410Y9808748D01*
X7266172Y9881392D02*
G01*
X7261092Y9865898D01*
X7250678Y9855484D01*
X7235184Y9850150D01*
X7229850Y9850150D01*
X7214356Y9855484D01*
X7203942Y9865898D01*
X7198608Y9881392D01*
X7198608Y9886472D01*
X7203942Y9902220D01*
X7214356Y9912634D01*
X7229850Y9917714D01*
X7235184Y9917714D01*
X7250678Y9912634D01*
X7261092Y9902220D01*
X7266172Y9881392D01*
X7266172Y9855484D01*
X7261092Y9829322D01*
X7250678Y9813828D01*
X7235184Y9808748D01*
X7224770Y9808748D01*
X7209022Y9813828D01*
X7203942Y9824242D01*
X7026142Y7902221D02*
G01*
X7015728Y7912635D01*
X7000234Y7917715D01*
X6979406Y7917715D01*
X6963912Y7912635D01*
X6953498Y7902221D01*
X6953498Y7891807D01*
X6958578Y7881393D01*
X6963912Y7876059D01*
X6974326Y7870979D01*
X7005568Y7860565D01*
X7015728Y7855485D01*
X7021062Y7850151D01*
X7026142Y7839737D01*
X7026142Y7824243D01*
X7015728Y7813829D01*
X7000234Y7808749D01*
X6979406Y7808749D01*
X6963912Y7813829D01*
X6953498Y7824243D01*
X7060432Y7917715D02*
G01*
X7086594Y7808749D01*
X7112502Y7917715D02*
G01*
X7086594Y7808749D01*
X7112502Y7917715D02*
G01*
X7138410Y7808749D01*
X7164318Y7917715D02*
G01*
X7138410Y7808749D01*
X7198608Y7896887D02*
G01*
X7209022Y7902221D01*
X7224770Y7917715D01*
X7224770Y7808749D01*
X7290048Y7917715D02*
G01*
X7274554Y7912635D01*
X7264140Y7896887D01*
X7259060Y7870979D01*
X7259060Y7855485D01*
X7264140Y7829323D01*
X7274554Y7813829D01*
X7290048Y7808749D01*
X7300462Y7808749D01*
X7316210Y7813829D01*
X7326624Y7829323D01*
X7331704Y7855485D01*
X7331704Y7870979D01*
X7326624Y7896887D01*
X7316210Y7912635D01*
X7300462Y7917715D01*
X7290048Y7917715D01*
X7026142Y5902220D02*
G01*
X7015728Y5912634D01*
X7000234Y5917714D01*
X6979406Y5917714D01*
X6963912Y5912634D01*
X6953498Y5902220D01*
X6953498Y5891806D01*
X6958578Y5881392D01*
X6963912Y5876058D01*
X6974326Y5870978D01*
X7005568Y5860564D01*
X7015728Y5855484D01*
X7021062Y5850150D01*
X7026142Y5839736D01*
X7026142Y5824242D01*
X7015728Y5813828D01*
X7000234Y5808748D01*
X6979406Y5808748D01*
X6963912Y5813828D01*
X6953498Y5824242D01*
X7060432Y5917714D02*
G01*
X7086594Y5808748D01*
X7112502Y5917714D02*
G01*
X7086594Y5808748D01*
X7112502Y5917714D02*
G01*
X7138410Y5808748D01*
X7164318Y5917714D02*
G01*
X7138410Y5808748D01*
X7198608Y5896886D02*
G01*
X7209022Y5902220D01*
X7224770Y5917714D01*
X7224770Y5808748D01*
X7259060Y5896886D02*
G01*
X7269474Y5902220D01*
X7284968Y5917714D01*
X7284968Y5808748D01*
X7026142Y3902222D02*
G01*
X7015728Y3912636D01*
X7000234Y3917716D01*
X6979406Y3917716D01*
X6963912Y3912636D01*
X6953498Y3902222D01*
X6953498Y3891808D01*
X6958578Y3881394D01*
X6963912Y3876060D01*
X6974326Y3870980D01*
X7005568Y3860566D01*
X7015728Y3855486D01*
X7021062Y3850152D01*
X7026142Y3839738D01*
X7026142Y3824244D01*
X7015728Y3813830D01*
X7000234Y3808750D01*
X6979406Y3808750D01*
X6963912Y3813830D01*
X6953498Y3824244D01*
X7060432Y3917716D02*
G01*
X7086594Y3808750D01*
X7112502Y3917716D02*
G01*
X7086594Y3808750D01*
X7112502Y3917716D02*
G01*
X7138410Y3808750D01*
X7164318Y3917716D02*
G01*
X7138410Y3808750D01*
X7198608Y3896888D02*
G01*
X7209022Y3902222D01*
X7224770Y3917716D01*
X7224770Y3808750D01*
X7264140Y3891808D02*
G01*
X7264140Y3896888D01*
X7269474Y3907302D01*
X7274554Y3912636D01*
X7284968Y3917716D01*
X7305796Y3917716D01*
X7316210Y3912636D01*
X7321290Y3907302D01*
X7326624Y3896888D01*
X7326624Y3886474D01*
X7321290Y3876060D01*
X7310876Y3860566D01*
X7259060Y3808750D01*
X7331704Y3808750D01*
X9026143Y9902220D02*
G01*
X9015729Y9912634D01*
X9000236Y9917714D01*
X8979408Y9917714D01*
X8963913Y9912634D01*
X8953500Y9902220D01*
X8953500Y9891806D01*
X8958579Y9881392D01*
X8963913Y9876058D01*
X8974327Y9870978D01*
X9005570Y9860564D01*
X9015729Y9855484D01*
X9021063Y9850150D01*
X9026143Y9839736D01*
X9026143Y9824242D01*
X9015729Y9813828D01*
X9000236Y9808748D01*
X8979408Y9808748D01*
X8963913Y9813828D01*
X8953500Y9824242D01*
X9060434Y9917714D02*
G01*
X9086595Y9808748D01*
X9112504Y9917714D02*
G01*
X9086595Y9808748D01*
X9112504Y9917714D02*
G01*
X9138411Y9808748D01*
X9164320Y9917714D02*
G01*
X9138411Y9808748D01*
X9198609Y9896886D02*
G01*
X9209024Y9902220D01*
X9224772Y9917714D01*
X9224772Y9808748D01*
X9269475Y9917714D02*
G01*
X9326625Y9917714D01*
X9295384Y9876058D01*
X9310877Y9876058D01*
X9321291Y9870978D01*
X9326625Y9865898D01*
X9331706Y9850150D01*
X9331706Y9839736D01*
X9326625Y9824242D01*
X9316211Y9813828D01*
X9300463Y9808748D01*
X9284970Y9808748D01*
X9269475Y9813828D01*
X9264141Y9818908D01*
X9259061Y9829322D01*
X9026143Y7902221D02*
G01*
X9015729Y7912635D01*
X9000236Y7917715D01*
X8979408Y7917715D01*
X8963913Y7912635D01*
X8953500Y7902221D01*
X8953500Y7891807D01*
X8958579Y7881393D01*
X8963913Y7876059D01*
X8974327Y7870979D01*
X9005570Y7860565D01*
X9015729Y7855485D01*
X9021063Y7850151D01*
X9026143Y7839737D01*
X9026143Y7824243D01*
X9015729Y7813829D01*
X9000236Y7808749D01*
X8979408Y7808749D01*
X8963913Y7813829D01*
X8953500Y7824243D01*
X9060434Y7917715D02*
G01*
X9086595Y7808749D01*
X9112504Y7917715D02*
G01*
X9086595Y7808749D01*
X9112504Y7917715D02*
G01*
X9138411Y7808749D01*
X9164320Y7917715D02*
G01*
X9138411Y7808749D01*
X9198609Y7896887D02*
G01*
X9209024Y7902221D01*
X9224772Y7917715D01*
X9224772Y7808749D01*
X9310877Y7917715D02*
G01*
X9259061Y7845071D01*
X9337040Y7845071D01*
X9310877Y7917715D02*
G01*
X9310877Y7808749D01*
X9026143Y5902220D02*
G01*
X9015729Y5912634D01*
X9000236Y5917714D01*
X8979408Y5917714D01*
X8963913Y5912634D01*
X8953500Y5902220D01*
X8953500Y5891806D01*
X8958579Y5881392D01*
X8963913Y5876058D01*
X8974327Y5870978D01*
X9005570Y5860564D01*
X9015729Y5855484D01*
X9021063Y5850150D01*
X9026143Y5839736D01*
X9026143Y5824242D01*
X9015729Y5813828D01*
X9000236Y5808748D01*
X8979408Y5808748D01*
X8963913Y5813828D01*
X8953500Y5824242D01*
X9060434Y5917714D02*
G01*
X9086595Y5808748D01*
X9112504Y5917714D02*
G01*
X9086595Y5808748D01*
X9112504Y5917714D02*
G01*
X9138411Y5808748D01*
X9164320Y5917714D02*
G01*
X9138411Y5808748D01*
X9198609Y5896886D02*
G01*
X9209024Y5902220D01*
X9224772Y5917714D01*
X9224772Y5808748D01*
X9321291Y5917714D02*
G01*
X9269475Y5917714D01*
X9264141Y5870978D01*
X9269475Y5876058D01*
X9284970Y5881392D01*
X9300463Y5881392D01*
X9316211Y5876058D01*
X9326625Y5865898D01*
X9331706Y5850150D01*
X9331706Y5839736D01*
X9326625Y5824242D01*
X9316211Y5813828D01*
X9300463Y5808748D01*
X9284970Y5808748D01*
X9269475Y5813828D01*
X9264141Y5818908D01*
X9259061Y5829322D01*
X9026143Y3902222D02*
G01*
X9015729Y3912636D01*
X9000236Y3917716D01*
X8979408Y3917716D01*
X8963913Y3912636D01*
X8953500Y3902222D01*
X8953500Y3891808D01*
X8958579Y3881394D01*
X8963913Y3876060D01*
X8974327Y3870980D01*
X9005570Y3860566D01*
X9015729Y3855486D01*
X9021063Y3850152D01*
X9026143Y3839738D01*
X9026143Y3824244D01*
X9015729Y3813830D01*
X9000236Y3808750D01*
X8979408Y3808750D01*
X8963913Y3813830D01*
X8953500Y3824244D01*
X9060434Y3917716D02*
G01*
X9086595Y3808750D01*
X9112504Y3917716D02*
G01*
X9086595Y3808750D01*
X9112504Y3917716D02*
G01*
X9138411Y3808750D01*
X9164320Y3917716D02*
G01*
X9138411Y3808750D01*
X9198609Y3896888D02*
G01*
X9209024Y3902222D01*
X9224772Y3917716D01*
X9224772Y3808750D01*
X9321291Y3902222D02*
G01*
X9316211Y3912636D01*
X9300463Y3917716D01*
X9290050Y3917716D01*
X9274556Y3912636D01*
X9264141Y3896888D01*
X9259061Y3870980D01*
X9259061Y3845072D01*
X9264141Y3824244D01*
X9274556Y3813830D01*
X9290050Y3808750D01*
X9295384Y3808750D01*
X9310877Y3813830D01*
X9321291Y3824244D01*
X9326625Y3839738D01*
X9326625Y3845072D01*
X9321291Y3860566D01*
X9310877Y3870980D01*
X9295384Y3876060D01*
X9290050Y3876060D01*
X9274556Y3870980D01*
X9264141Y3860566D01*
X9259061Y3845072D01*
X1050544Y8893322D02*
G01*
X1040129Y8903736D01*
X1024636Y8908816D01*
X1003807Y8908816D01*
X988313Y8903736D01*
X977900Y8893322D01*
X977900Y8882908D01*
X982979Y8872494D01*
X988313Y8867160D01*
X998728Y8862080D01*
X1029970Y8851666D01*
X1040129Y8846586D01*
X1045463Y8841252D01*
X1050544Y8830838D01*
X1050544Y8815344D01*
X1040129Y8804930D01*
X1024636Y8799850D01*
X1003807Y8799850D01*
X988313Y8804930D01*
X977900Y8815344D01*
X1084834Y8908816D02*
G01*
X1110995Y8799850D01*
X1136904Y8908816D02*
G01*
X1110995Y8799850D01*
X1136904Y8908816D02*
G01*
X1162812Y8799850D01*
X1188720Y8908816D02*
G01*
X1162812Y8799850D01*
X1223010Y8887988D02*
G01*
X1233423Y8893322D01*
X1249171Y8908816D01*
X1249171Y8799850D01*
X1356105Y8908816D02*
G01*
X1304289Y8799850D01*
X1283462Y8908816D02*
G01*
X1356105Y8908816D01*
X1063244Y6848622D02*
G01*
X1052829Y6859036D01*
X1037336Y6864116D01*
X1016507Y6864116D01*
X1001013Y6859036D01*
X990600Y6848622D01*
X990600Y6838208D01*
X995679Y6827794D01*
X1001013Y6822460D01*
X1011428Y6817380D01*
X1042670Y6806966D01*
X1052829Y6801886D01*
X1058163Y6796552D01*
X1063244Y6786138D01*
X1063244Y6770644D01*
X1052829Y6760230D01*
X1037336Y6755150D01*
X1016507Y6755150D01*
X1001013Y6760230D01*
X990600Y6770644D01*
X1097534Y6864116D02*
G01*
X1123695Y6755150D01*
X1149604Y6864116D02*
G01*
X1123695Y6755150D01*
X1149604Y6864116D02*
G01*
X1175512Y6755150D01*
X1201420Y6864116D02*
G01*
X1175512Y6755150D01*
X1235710Y6843288D02*
G01*
X1246123Y6848622D01*
X1261871Y6864116D01*
X1261871Y6755150D01*
X1322070Y6864116D02*
G01*
X1306576Y6859036D01*
X1301242Y6848622D01*
X1301242Y6838208D01*
X1306576Y6827794D01*
X1316989Y6822460D01*
X1337563Y6817380D01*
X1353312Y6812300D01*
X1363726Y6801886D01*
X1368805Y6791472D01*
X1368805Y6775724D01*
X1363726Y6765310D01*
X1358392Y6760230D01*
X1342897Y6755150D01*
X1322070Y6755150D01*
X1306576Y6760230D01*
X1301242Y6765310D01*
X1296162Y6775724D01*
X1296162Y6791472D01*
X1301242Y6801886D01*
X1311655Y6812300D01*
X1327150Y6817380D01*
X1347978Y6822460D01*
X1358392Y6827794D01*
X1363726Y6838208D01*
X1363726Y6848622D01*
X1358392Y6859036D01*
X1342897Y6864116D01*
X1322070Y6864116D01*
X1063244Y4880122D02*
G01*
X1052829Y4890536D01*
X1037336Y4895616D01*
X1016507Y4895616D01*
X1001013Y4890536D01*
X990600Y4880122D01*
X990600Y4869708D01*
X995679Y4859294D01*
X1001013Y4853960D01*
X1011428Y4848880D01*
X1042670Y4838466D01*
X1052829Y4833386D01*
X1058163Y4828052D01*
X1063244Y4817638D01*
X1063244Y4802144D01*
X1052829Y4791730D01*
X1037336Y4786650D01*
X1016507Y4786650D01*
X1001013Y4791730D01*
X990600Y4802144D01*
X1097534Y4895616D02*
G01*
X1123695Y4786650D01*
X1149604Y4895616D02*
G01*
X1123695Y4786650D01*
X1149604Y4895616D02*
G01*
X1175512Y4786650D01*
X1201420Y4895616D02*
G01*
X1175512Y4786650D01*
X1235710Y4874788D02*
G01*
X1246123Y4880122D01*
X1261871Y4895616D01*
X1261871Y4786650D01*
X1363726Y4859294D02*
G01*
X1358392Y4843800D01*
X1347978Y4833386D01*
X1332484Y4828052D01*
X1327150Y4828052D01*
X1311655Y4833386D01*
X1301242Y4843800D01*
X1296162Y4859294D01*
X1296162Y4864374D01*
X1301242Y4880122D01*
X1311655Y4890536D01*
X1327150Y4895616D01*
X1332484Y4895616D01*
X1347978Y4890536D01*
X1358392Y4880122D01*
X1363726Y4859294D01*
X1363726Y4833386D01*
X1358392Y4807224D01*
X1347978Y4791730D01*
X1332484Y4786650D01*
X1322070Y4786650D01*
X1306576Y4791730D01*
X1301242Y4802144D01*
X762000Y984016D02*
G01*
X762000Y875050D01*
X762000Y984016D02*
G01*
X798321Y984016D01*
X814070Y978936D01*
X824229Y968522D01*
X829563Y958108D01*
X834644Y942360D01*
X834644Y916452D01*
X829563Y900958D01*
X824229Y890544D01*
X814070Y880130D01*
X798321Y875050D01*
X762000Y875050D01*
X868934Y963188D02*
G01*
X879347Y968522D01*
X895095Y984016D01*
X895095Y875050D01*
X1536700Y958616D02*
G01*
X1536700Y849650D01*
X1536700Y958616D02*
G01*
X1573021Y958616D01*
X1588770Y953536D01*
X1598929Y943122D01*
X1604263Y932708D01*
X1609344Y916960D01*
X1609344Y891052D01*
X1604263Y875558D01*
X1598929Y865144D01*
X1588770Y854730D01*
X1573021Y849650D01*
X1536700Y849650D01*
X1648968Y932708D02*
G01*
X1648968Y937788D01*
X1654047Y948202D01*
X1659381Y953536D01*
X1669795Y958616D01*
X1690370Y958616D01*
X1700784Y953536D01*
X1706118Y948202D01*
X1711197Y937788D01*
X1711197Y927374D01*
X1706118Y916960D01*
X1695704Y901466D01*
X1643634Y849650D01*
X1716531Y849650D01*
X2349500Y1022116D02*
G01*
X2349500Y913150D01*
X2349500Y1022116D02*
G01*
X2385822Y1022116D01*
X2401570Y1017036D01*
X2411729Y1006622D01*
X2417063Y996208D01*
X2422143Y980460D01*
X2422143Y954552D01*
X2417063Y939058D01*
X2411729Y928644D01*
X2401570Y918230D01*
X2385822Y913150D01*
X2349500Y913150D01*
X2466847Y1022116D02*
G01*
X2523997Y1022116D01*
X2493009Y980460D01*
X2508504Y980460D01*
X2518918Y975380D01*
X2523997Y970300D01*
X2529331Y954552D01*
X2529331Y944138D01*
X2523997Y928644D01*
X2513584Y918230D01*
X2498090Y913150D01*
X2482595Y913150D01*
X2466847Y918230D01*
X2461768Y923310D01*
X2456434Y933724D01*
D10*
X4381500Y1643400D02*
G01*
X4889500Y1643400D01*
X4889500Y1643400D02*
G01*
X4889500Y1567200D01*
X4889500Y1567200D02*
G01*
X4889500Y1491000D01*
X4889500Y1491000D02*
G01*
X4381500Y1491000D01*
X4381500Y1491000D02*
G01*
X4381500Y1567200D01*
X4381500Y1567200D02*
G01*
X4381500Y1643400D01*
X4889500Y1567200D02*
G01*
X4914900Y1567200D01*
X4381500Y1567200D02*
G01*
X4356100Y1567200D01*
X4381500Y1249700D02*
G01*
X4889500Y1249700D01*
X4889500Y1249700D02*
G01*
X4889500Y1173500D01*
X4889500Y1173500D02*
G01*
X4889500Y1097300D01*
X4889500Y1097300D02*
G01*
X4381500Y1097300D01*
X4381500Y1097300D02*
G01*
X4381500Y1173500D01*
X4381500Y1173500D02*
G01*
X4381500Y1249700D01*
X4889500Y1173500D02*
G01*
X4914900Y1173500D01*
X4381500Y1173500D02*
G01*
X4356100Y1173500D01*
X4381500Y817900D02*
G01*
X4889500Y817900D01*
X4889500Y817900D02*
G01*
X4889500Y741700D01*
X4889500Y741700D02*
G01*
X4889500Y665500D01*
X4889500Y665500D02*
G01*
X4381500Y665500D01*
X4381500Y665500D02*
G01*
X4381500Y741700D01*
X4381500Y741700D02*
G01*
X4381500Y817900D01*
X4889500Y741700D02*
G01*
X4914900Y741700D01*
X4381500Y741700D02*
G01*
X4356100Y741700D01*
X3606800Y665500D02*
G01*
X3098800Y665500D01*
X3098800Y665500D02*
G01*
X3098800Y741700D01*
X3098800Y741700D02*
G01*
X3098800Y817900D01*
X3098800Y817900D02*
G01*
X3606800Y817900D01*
X3606800Y817900D02*
G01*
X3606800Y741700D01*
X3606800Y741700D02*
G01*
X3606800Y665500D01*
X3098800Y741700D02*
G01*
X3073400Y741700D01*
X3606800Y741700D02*
G01*
X3632200Y741700D01*
X3098800Y1287800D02*
G01*
X3606800Y1287800D01*
X3606800Y1287800D02*
G01*
X3606800Y1211600D01*
X3606800Y1211600D02*
G01*
X3606800Y1135400D01*
X3606800Y1135400D02*
G01*
X3098800Y1135400D01*
X3098800Y1135400D02*
G01*
X3098800Y1211600D01*
X3098800Y1211600D02*
G01*
X3098800Y1287800D01*
X3606800Y1211600D02*
G01*
X3632200Y1211600D01*
X3098800Y1211600D02*
G01*
X3073400Y1211600D01*
X3644900Y1529100D02*
G01*
X3136900Y1529100D01*
X3136900Y1529100D02*
G01*
X3136900Y1605300D01*
X3136900Y1605300D02*
G01*
X3136900Y1681500D01*
X3136900Y1681500D02*
G01*
X3644900Y1681500D01*
X3644900Y1681500D02*
G01*
X3644900Y1605300D01*
X3644900Y1605300D02*
G01*
X3644900Y1529100D01*
X3136900Y1605300D02*
G01*
X3111500Y1605300D01*
X3644900Y1605300D02*
G01*
X3670300Y1605300D01*
X645160Y439440D02*
G01*
X645160Y388640D01*
X645160Y337840D01*
X723900Y439440D02*
G01*
X723900Y388640D01*
X723900Y337840D01*
X723900Y388640D02*
G01*
X822960Y388640D01*
X543560Y388640D02*
G01*
X645160Y388640D01*
X703579Y467380D02*
G01*
X754379Y518180D01*
X703579Y518180D01*
X754379Y467380D01*
X754379Y518180D01*
X914400Y729000D02*
G01*
X914400Y609620D01*
X914400Y348000D02*
G01*
X914400Y449600D01*
X1483360Y439440D02*
G01*
X1483360Y388640D01*
X1483360Y337840D01*
X1562100Y439440D02*
G01*
X1562100Y388640D01*
X1562100Y337840D01*
X1562100Y388640D02*
G01*
X1661160Y388640D01*
X1381760Y388640D02*
G01*
X1483360Y388640D01*
X1541779Y467380D02*
G01*
X1592579Y518180D01*
X1541779Y518180D01*
X1592579Y467380D01*
X1592579Y518180D01*
X1752600Y729000D02*
G01*
X1752600Y609620D01*
X1752600Y348000D02*
G01*
X1752600Y449600D01*
X2296159Y502940D02*
G01*
X2296159Y452140D01*
X2296159Y401340D01*
X2374900Y502940D02*
G01*
X2374900Y452140D01*
X2374900Y401340D01*
X2374900Y452140D02*
G01*
X2473959Y452140D01*
X2194559Y452140D02*
G01*
X2296159Y452140D01*
X2354579Y530880D02*
G01*
X2405379Y581680D01*
X2354579Y581680D01*
X2405379Y530880D01*
X2405379Y581680D01*
X2565400Y792500D02*
G01*
X2565400Y673120D01*
X2565400Y411500D02*
G01*
X2565400Y513100D01*
G75*
G01*
X914400Y348000D02*
G02*
X914400Y729000I-177798J190500D01*
G75*
G01*
X1752600Y348000D02*
G02*
X1752600Y729000I-177798J190500D01*
G75*
G01*
X2565400Y411500D02*
G02*
X2565400Y792500I-177798J190500D01*
M02*
