M48
METRIC,LZ,0000.00
;FILE_FORMAT=4:2
;TYPE=PLATED
;Layer: Drill PTH
;EasyEDA v6.4.14, 2021-01-27T18:33:08+00:00
;23e06626385a4a67b6d4a1ad3893387d,b188a025bfda474f93bca2756d95531f,10
;Gerber Generator version 0.2
;Holesize 1 = 0.310 mm
T01C0.310
;Holesize 2 = 0.400 mm
T02C0.400
;Holesize 3 = 0.889 mm
T03C0.889
;Holesize 4 = 0.900 mm
T04C0.900
%
G05
G90
T01
X008866Y001960
X007665Y003782
X009604Y003782
X007976Y002151
X002486Y002828
X009068Y005609
X007771Y005609
X005769Y005699
X003389Y006218
X008046Y007159
X007579Y007159
X009604Y007291
X003677Y007331
X005604Y007755
X005523Y001822
X008484Y002266
X006284Y003051
T02
X005944Y001783
X006198Y001783
X006452Y001783
X006706Y001783
X006960Y001783
X007214Y001783
X007468Y001783
X007722Y001783
X007976Y001783
X008230Y001783
X008484Y001783
X008738Y001783
X008992Y001783
X009246Y001783
X009500Y001783
X009500Y000259
X009246Y000259
X008992Y000259
X008738Y000259
X008484Y000259
X008230Y000259
X007976Y000259
X007722Y000259
X007468Y000259
X007214Y000259
X006960Y000259
X006706Y000259
X006452Y000259
X006198Y000259
X005944Y000259
X005690Y000767
X005690Y001021
X005690Y001275
X005944Y001275
X005944Y001021
X005944Y000767
T03
X000597Y000539
X000851Y000539
X001435Y000539
X001689Y000539
X002248Y000602
X002502Y000602
T04
X004255Y001567
X005017Y001567
X004255Y001174
X005017Y001174
X004255Y000742
X005017Y000742
X003734Y000742
X002972Y000742
X002972Y001212
X003734Y001212
X003772Y001605
X003010Y001605
M30
