M48
METRIC,LZ,0000.00
;FILE_FORMAT=4:2
;TYPE=NON_PLATED
;Layer: Drill NPTH
;EasyEDA v6.4.14, 2021-01-27T18:33:08+00:00
;23e06626385a4a67b6d4a1ad3893387d,b188a025bfda474f93bca2756d95531f,10
;Gerber Generator version 0.2
;Holesize 1 = 1.701 mm
T01C1.701
;Holesize 2 = 3.000 mm
T02C3.000
;Holesize 3 = 4.000 mm
T03C4.000
%
G05
G90
T01
X002496Y008990
X003512Y008990
X002496Y006990
X003512Y006990
X002496Y004990
X003512Y004990
X002496Y002990
X003512Y002990
X004496Y008990
X005512Y008990
X004496Y006990
X005512Y006990
X004496Y004990
X005512Y004990
X004496Y002990
X005512Y002990
X006496Y008990
X007512Y008990
X006496Y006990
X007512Y006990
X006496Y004990
X007512Y004990
X006496Y002990
X007512Y002990
X008496Y008990
X009512Y008990
X008496Y006990
X009512Y006990
X008496Y004990
X009512Y004990
X008496Y002990
X009512Y002990
X000521Y007981
X001537Y007981
X000533Y005936
X001549Y005936
X000533Y003968
X001549Y003968
T02
X003258Y009498
X002623Y009244
X003258Y007498
X002623Y007244
X003258Y005498
X002623Y005244
X003258Y003498
X002623Y003244
X005258Y009498
X004623Y009244
X005258Y007498
X004623Y007244
X005258Y005498
X004623Y005244
X005258Y003498
X004623Y003244
X007258Y009498
X006623Y009244
X007258Y007498
X006623Y007244
X007258Y005498
X006623Y005244
X007258Y003498
X006623Y003244
X009258Y009498
X008623Y009244
X009258Y007498
X008623Y007244
X009258Y005498
X008623Y005244
X009258Y003498
X008623Y003244
X001283Y008489
X000648Y008235
X001295Y006444
X000660Y006190
X001295Y004476
X000660Y004222
T03
X003004Y008990
X003004Y006990
X003004Y004990
X003004Y002990
X005004Y008990
X005004Y006990
X005004Y004990
X005004Y002990
X007004Y008990
X007004Y006990
X007004Y004990
X007004Y002990
X009004Y008990
X009004Y006990
X009004Y004990
X009004Y002990
X001029Y007981
X001041Y005936
X001041Y003968
M30
